<!-- icon666.com - MILLIONS vector ICONS FREE --><svg enable-background="new 0 0 64 64" viewBox="0 0 64 64" xmlns="http://www.w3.org/2000/svg"><g id="Layer_11"><path d="m45.48 19.91c-.381.4-.771.79-1.16 1.17l-.53.53-9.88 9.88-.04.04c-.03.03-.05.06-.07.09l-.109.13c-.181.22-.44.35-.721.36-.02.01-.029.01-.05.01-.26 0-.52-.11-.71-.3l-.3-.3-1.46-1.48-9.95-9.94c-1.7-1.7-2.56-3.76-2.56-6.12 0-3.83 2.56-7.2 6.229-8.17 3.021-.81 5.811-.11 8.141 2.03.2.19.391.39.58.58.13-.12.25-.24.38-.35l.32-.27c.49-.42.99-.85 1.601-1.2 1.27-.73 2.72-1.12 4.17-1.12 4.14 0 7.649 2.95 8.37 7.02.489 2.8-.271 5.3-2.251 7.41z" fill="#f04d59"></path><path d="m33.91 31.49v26.03c0 .55-.45 1-1 1-.561 0-1-.45-1-1v-26l.3.3c.19.19.45.3.71.3.021 0 .03 0 .05-.01.28-.01.54-.14.721-.36l.109-.13c.021-.03.04-.06.07-.09z" fill="#e8e8e8"></path><path d="m59.46 34.01c-.24.25-.49.5-.74.75l-6.42 6.42-.13.13c-.01 0-.09.11-.09.11-.18.22-.45.35-.73.36h-.04c-.27 0-.52-.1-.71-.29l-.3-.3-7.05-7.06c-1.14-1.14-1.72-2.52-1.71-4.1 0-2.58 1.72-4.83 4.18-5.49 2.03-.54 3.9-.07 5.46 1.36l.12.12.181-.15c.31-.26.649-.56 1.06-.79.86-.5 1.83-.75 2.81-.75 2.771 0 5.141 1.98 5.62 4.7.319 1.86-.201 3.58-1.511 4.98z" fill="#f04d59"></path><path d="m52.3 41.18v16.17c0 .55-.45 1-1 1s-1-.45-1-1v-16.16l.3.3c.19.19.44.29.71.29h.04c.28-.01.551-.14.73-.36 0 0 .08-.11.09-.11z" fill="#e8e8e8"></path><path d="m20.86 34.01c-.24.26-.5.51-.75.76l-6.54 6.54c-.011 0-.08.1-.09.11-.181.21-.44.35-.721.36h-.05c-.26 0-.52-.1-.71-.29l-.3-.3-7.04-7.06c-1.15-1.14-1.72-2.52-1.72-4.1 0-2.58 1.72-4.83 4.18-5.49 2.03-.54 3.899-.07 5.46 1.36.04.04.09.08.13.12l.18-.15c.301-.26.65-.56 1.061-.8.859-.49 1.83-.74 2.8-.74 2.78 0 5.14 1.98 5.62 4.7.33 1.86-.2 3.58-1.51 4.98z" fill="#f04d59"></path><path d="m13.7 41.18v16.17c0 .55-.45 1-1 1s-1-.45-1-1v-16.16l.3.3c.19.19.45.29.71.29h.05c.28-.01.54-.15.721-.36.01-.01.079-.11.09-.11z" fill="#e8e8e8"></path></g></svg>