<!-- icon666.com - MILLIONS vector ICONS FREE --><svg viewBox="0 0 60 50" xmlns="http://www.w3.org/2000/svg"><g id="Page-1" fill="none" fill-rule="evenodd"><g id="002---Hearts" fill-rule="nonzero"><path id="Shape" d="m43 10.2c.000577.9606409-.1756937 1.9131809-.52 2.81-3.14-.51-5.96 1.65-6.86 4.84-.2452019.877632-.3232236 1.7935392-.23 2.7-.2845104.2120059-.545947.4533319-.78.72-.4364573-1.8627367-1.8429457-3.3456646-3.68-3.88-2.58-.65-4.92 1.14-5.57 3.77-.0569027.2306081-.1003097.4643382-.13.7-1.11-.96-2.13-1.86-3.04-2.72-2.86-2.7-4.71-5.05-5.1-7.81-.0605563-.3736073-.0906554-.7515174-.09-1.13 0-3.9 2.65-7.2 6.5-7.2 4.5 0 6.5 4.14 6.5 4.14s2-4.14 6.5-4.14c3.85 0 6.5 3.3 6.5 7.2z" fill="#e91e63" style="fill: rgb(228, 119, 155);"></path><path id="Shape" d="m36.5 3c-.5168474-.00076357-1.0321228.05693653-1.536.172 3.1106957.88375479 5.1991639 3.79832081 5.036 7.028.000577.9606409-.1756937 1.9131809-.52 2.81-3.14-.51-5.96 1.65-6.86 4.84-.027.1-.044.2-.067.293 1.0181005.7810791 1.7428609 1.8828418 2.057 3.127.234053-.2666681.4954896-.5079941.78-.72-.0932236-.9064608-.0152019-1.822368.23-2.7.9-3.19 3.72-5.35 6.86-4.84.3443063-.8968191.520577-1.8493591.52-2.81 0-3.9-2.65-7.2-6.5-7.2z" fill="#ad1457" style="fill: rgb(251, 9, 114);"></path><path id="Shape" d="m16.57 44.99c-8.18-3.27-13.46-4.62-15.1-9.03-1.19-3.18-.09-6.65 2.96-7.78 3.57-1.34 6.41 1.45 6.41 1.45.1682821-1.3707377.73108-2.6630884 1.62-3.72.6125223-.7128189 1.3974881-1.2567864 2.28-1.58 1.4069395-.5331264 2.9777241-.4159583 4.29.32 1.4222153.801319 2.5057962 2.0909579 3.05 3.63 1.64 4.4-1.47 8.88-5.51 16.71z" fill="#e91e63" style="fill: rgb(228, 119, 155);"></path><path id="Shape" d="m22.08 28.28c-.5442038-1.5390421-1.6277847-2.828681-3.05-3.63-1.2145289-.6775831-2.6536498-.8279282-3.982-.416.3400801.1064094.6689705.2457357.982.416 1.4222153.801319 2.5057962 2.0909579 3.05 3.63 1.57 4.212-1.216 8.506-5 15.734.8.309 1.625.63 2.491.976 4.039-7.83 7.149-12.31 5.509-16.71z" fill="#ad1457" style="fill: rgb(251, 9, 114);"></path><path id="Shape" d="m22.19 19.14c-.8676543 1.9370923-1.9262197 3.782882-3.16 5.51-1.3122759-.7359583-2.8830605-.8531264-4.29-.32-.8825119.3232136-1.6674777.8671811-2.28 1.58-3.94-1.9-6.49-3.37-7.25-6.09-.72-2.61.43-5.32 3-6.03 1.8586784-.4330581 3.8066583.1666142 5.1 1.57.3873579-1.8722958 1.7506615-3.3921693 3.57-3.98.0654071-.0213521.1322398-.0380603.2-.05h.01c.39 2.76 2.24 5.11 5.1 7.81z" fill="#ad1457" style="fill: rgb(251, 9, 114);"></path><path id="Shape" d="m58.11 42.58c-2.02 3.16-6.45 3.29-13.5 4.42-1.77-6.23-3.37-10.15-2.15-13.19.1244336-.3220932.2819432-.6304099.47-.92 1.47-2.29 4.25-3.23 6.49-1.8.2974986.1881625.572604.4095888.82.66 1.0383856 1.1371622 1.5565005 2.6552752 1.43 4.19 1.6486712-.9634327 3.687732-.9672511 5.34-.01 2.25 1.44 2.56 4.36 1.1 6.65z" fill="#e91e63" style="fill: rgb(228, 119, 155);"></path><path id="Shape" d="m46.42 31.09c.2974986.1881625.572604.4095888.82.66 1.0383856 1.1371622 1.5565005 2.6552752 1.43 4.19.9172833-.5143803 1.9567307-.7707865 3.008-.742-.0449499-1.2857726-.5560591-2.5112973-1.438-3.448-.247396-.2504112-.5225014-.4718375-.82-.66-1.1296824-.7243073-2.5359876-.8697615-3.79-.392.2757139.1040705.5403576.2353874.79.392z" fill="#ad1457" style="fill: rgb(251, 9, 114);"></path><path id="Shape" d="m57.01 35.93c-1.2234551-.7622043-2.7199127-.9486674-4.093-.51.3847248.1223522.7520822.2937633 1.093.51 2.25 1.44 2.56 4.36 1.1 6.65-1.729 2.7-5.232 3.191-10.626 3.983.042.147.084.288.126.437 7.05-1.13 11.48-1.26 13.5-4.42 1.46-2.29 1.15-5.21-1.1-6.65z" fill="#ad1457" style="fill: rgb(251, 9, 114);"></path><path id="Shape" d="m42.83 25.5c-.5104893 1.7115801-1.6550582 3.1637519-3.2 4.06-2.6537661 1.6164926-5.3872253 3.0983679-8.19 4.44-3.77-5.51-6.6-8.75-6.21-12.14.0296903-.2356618.0730973-.4693919.13-.7.65-2.63 2.99-4.42 5.57-3.77 1.8370543.5343354 3.2435427 2.0172633 3.68 3.88.234053-.2666681.4954896-.5079941.78-.72 1.1965771-.9745804 2.7770025-1.3401461 4.28-.99 2.58.64 3.81 3.31 3.16 5.94z" fill="#e91e63" style="fill: rgb(228, 119, 155);"></path><path id="Shape" d="m39.67 19.56c-.8827641-.2208256-1.8108283-.1787672-2.67.121 2.3340085.8857635 3.5743424 3.4361179 2.83 5.819-.5104893 1.7115801-1.6550582 3.1637519-3.2 4.06-1.9234478 1.2215592-3.9202187 2.3236405-5.979 3.3.258.37.52.748.789 1.141 2.8027747-1.3416321 5.5362339-2.8235074 8.19-4.44 1.5449418-.8962481 2.6895107-2.3484199 3.2-4.06.65-2.631-.58-5.301-3.16-5.941z" fill="#ad1457" style="fill: rgb(251, 9, 114);"></path><path id="Shape" d="m30.968 39.06c.5784348-1.1495532 1.7351449-1.8946568 3.021-1.946.8586365.0604879 1.6564505.4651896 2.2124462 1.1222925.5559957.657103.8230413 1.5109046.7405538 2.3677075-.033 2.589-2.494 4.272-6.089 7.5-3.513-3.314-5.93-5.059-5.9-7.648-.0615809-.8602877.2274853-1.7088973.8014148-2.3527079.5739294-.6438106 1.3839005-1.028056 2.2455852-1.0652921 1.2830141.0853011 2.4190293.8592306 2.968 2.022z" fill="#e91e63" style="fill: rgb(228, 119, 155);"></path><path id="Shape" d="m33.989 37.114c-.5547371-.0067013-1.1002897.1418968-1.575.429 1.0048282.6852223 1.5830371 1.8420184 1.528 3.057-.028 2.2-1.812 3.748-4.551 6.14.462.425.949.872 1.462 1.356 3.595-3.224 6.056-4.907 6.089-7.5.0802031-.8554971-.1878856-1.7072004-.743644-2.3625174-.5557585-.655317-1.3522461-1.0588979-2.209356-1.1194826z" fill="#ad1457" style="fill: rgb(251, 9, 114);"></path><path id="Shape" d="m58.71 24.39c-.93 3.28-3.89 5.16-8.47 7.36-.247396-.2504112-.5225014-.4718375-.82-.66-2.24-1.43-5.02-.49-6.49 1.8-.1880568.2895901-.3455664.5979068-.47.92-1.02-1.54-1.97-2.95-2.83-4.25 1.5449418-.8962481 2.6895107-2.3484199 3.2-4.06.65-2.63-.58-5.3-3.16-5.94-1.5029975-.3501461-3.0834229.0154196-4.28.99-.0932236-.9064608-.0152019-1.822368.23-2.7.9-3.19 3.72-5.35 6.86-4.84.2361862.0356108.4699603.0857052.7.15 2.4141705.7772216 4.2268532 2.7883453 4.75 5.27 1.7433013-1.839005 4.3386548-2.6023442 6.8-2 3.42.96 4.95 4.53 3.98 7.96z" fill="#ad1457" style="fill: rgb(251, 9, 114);"></path><path id="Shape" d="m14 5c-2.209139 0-4-1.790861-4-4 0 2.209139-1.790861 4-4 4 2.209139 0 4 1.790861 4 4 0-2.209139 1.790861-4 4-4z" fill="#ffdf00" style="fill: rgb(167, 174, 66);"></path><path id="Shape" d="m54 8c-2.209139 0-4-1.790861-4-4 0 2.209139-1.790861 4-4 4 2.209139 0 4 1.790861 4 4 0-2.209139 1.790861-4 4-4z" fill="#ffdf00" style="fill: rgb(167, 174, 66);"></path><g fill="#000"><path id="Shape" d="m12.649 44.533c1.114.43 2.3.886 3.554 1.388.1178745.0476729.2438501.072121.371.072.3742163.0002109.7172348-.2085326.889-.541.619-1.2 1.216-2.323 1.777-3.376 3.206-6.022 5.324-10 3.778-14.147-.5174004-1.4084813-1.4229871-2.6417017-2.612-3.557.7719556-1.1478589 1.481323-2.3365918 2.125-3.561.5293333.478 1.084.969 1.664 1.473-.109 2.982 1.859 5.78 4.654 9.748.557.79 1.15 1.631 1.767 2.533.2863536.4186865.840821.5566586 1.29.321.968-.508 1.885-.974 2.747-1.412 1.8-.914 3.37-1.716 4.694-2.534l.773 1.16c.4.591.813 1.219 1.234 1.853-.842 2.713.1 5.9 1.426 10.354.276.927.569 1.913.867 2.965.1215968.4301936.5139519.72742.961.728.0532713.0001465.10646-.0042023.159-.013 1.08-.172 2.1-.321 3.054-.462 5.524-.809 9.174-1.343 11.131-4.409.8914254-1.2455904 1.245239-2.7970129.9820006-4.3059331s-1.1214704-2.8488955-2.3820006-3.7190669c-1.4719249-.9309923-3.281138-1.1606697-4.939-.627-.1203382-.8314537-.403401-1.6310296-.833-2.353 3.665-1.828 6.885-3.884 7.9-7.449.5952147-2.0072087.3749513-4.1681616-.613-6.014-.8751567-1.5618268-2.3402084-2.7073553-4.067-3.18-2.2665244-.6279362-4.6960301-.1731883-6.582 1.232-.8445296-2.0784052-2.5535078-3.6851368-4.68-4.4.1723256-.6867561.2603076-1.3919554.262-2.1 0-4.675-3.224-8.2-7.5-8.2-2.5663892.02362608-4.9729468 1.25022994-6.5 3.313-1.5270532-2.06277006-3.9336108-3.28937392-6.5-3.313-4.276 0-7.5 3.525-7.5 8.2 0 .144.013.282.019.423-1.4093114.5743005-2.5456043 1.6658715-3.176 3.051-1.4277064-.9930245-3.22161363-1.3034803-4.9-.848-1.4617945.4609982-2.67708825 1.4899606-3.37284609 2.8557144-.69575783 1.3657539-.81363694 2.9537737-.32715391 4.4072856.808 2.891 3.277 4.486 6.708 6.2-.3074968.5157642-.5582895 1.0632835-.748 1.633-1.82530597-1.1635046-4.08712639-1.4143255-6.123-.679-1.71326735.6324879-3.05492276 1.9965103-3.659 3.72-.59662251 1.7406535-.55765314 3.6363361.11 5.351 1.546 4.146 5.751 5.767 12.118 8.219zm21.1-12.842c-.6326667.3206667-1.2943333.6586667-1.985 1.014-.4433333-.638-.8696667-1.2463333-1.279-1.825-3-4.261-4.813-6.833-4.156-9.475.2337201-1.0202109.82688-1.9221973 1.671-2.541.5463232-.3926923 1.2012005-.6058594 1.874-.61.2767122-.0001306.5524097.0334501.821.1 1.4671514.4358522 2.5876207 1.6254202 2.935 3.116.0795164.3754435.3668802.6722614.739554.763885.3726738.0916237.7649078-.0381119 1.009446-.333885 1.0061601-1.1508661 2.5509958-1.6757287 4.05-1.376.9337993.2218642 1.7201329.848365 2.145 1.709.4554912.9420468.5563147 2.0166688.284 3.027-.658 2.646-3.464 4.071-8.11 6.431zm22.724 5.085c1.682 1.074 2.023 3.336.794 5.264-1.466 2.3-4.578 2.751-9.735 3.507-.702.102-1.4353333.2113333-2.2.328-.216-.746-.428-1.458-.63-2.138-1.487-5-2.384-8.01-.919-10.3.5457341-.8922801 1.3945003-1.5582297 2.391-1.876.3150217-.0946062.6420802-.1431092.971-.144.6200523.0015898 1.2262879.1832868 1.745.523 1.2516503.8808357 1.9345805 2.3654166 1.789 3.889-.0446406.3803924.1319075.7528666.4546196.9591384.3227122.2062718.7348913.2101015 1.0613804.0098616 1.3188096-.7728968 2.9503092-.7812889 4.277-.022zm-9.527-18.168c.067744.3763588.3441927.6811298.7121818.7851452s.7630771-.0109397 1.0178182-.2961452c1.4878205-1.5560422 3.6908388-2.2035406 5.784-1.7 1.2148158.3258537 2.2449931 1.1315143 2.854 2.232.7297715 1.3819941.8856968 2.9958569.434 4.492-.769 2.711-3.2 4.4-7.361 6.444-.138-.106-.271-.214-.426-.312-1.2925473-.8355105-2.8875797-1.0590345-4.36-.611-1.2819357.4047194-2.399663 1.2111099-3.188 2.3-.209-.314-.428-.645-.63-.947l-.8-1.2c1.3757467-.9846218 2.368547-2.4148196 2.81-4.048.3879827-1.477488.2303472-3.0453223-.444-4.416-.6883536-1.3766401-1.94825-2.3800942-3.444-2.743-1.1437489-.2904012-2.3496746-.2159268-3.449.213.0282949-.2281214.0693593-.4544767.123-.678.5727027-2.6568435 3.0719654-4.4424023 5.771-4.123.1883425.0290963.3746999.0698411.558.122 2.0534765.6623874 3.5945185 2.3744018 4.038 4.486zm-23.446-14.608c2.3740973.09676018 4.5129397 1.46218184 5.6 3.575.1671178.34494747.5167023.56402044.9.564.3823951.00076527.7317466-.21660898.9-.56 1.0848694-2.11539254 3.2245859-3.48290068 5.6-3.579 3.136 0 5.5 2.666 5.5 6.2-.0005534.5895817-.078212 1.1765593-.231 1.746-3.389941.0055107-6.3325949 2.3378701-7.112 5.637-.0932537.3420148-.1640711.6897548-.212 1.041-.7919892-1.1024758-1.9522101-1.8852968-3.271-2.207-1.4914104-.3792983-3.0741744-.0826443-4.327.811-.9817293.7097109-1.7340424 1.6914725-2.164 2.824-4.077-3.602-6.683-6.397-6.683-9.852 0-3.534 2.364-6.2 5.5-6.2zm-17.326 15.554c-.608-2.206.382-4.269 2.3-4.8 1.48878021-.3413755 3.0463168.1414189 4.081 1.265.2524596.2879561.6471985.4064447 1.016507.3051243.3693085-.1013203.64832-.4046534.718493-.7811243.2682692-1.1925504 1.0101297-2.2246571 2.055-2.859.678 2.351 2.319 4.433 4.639 6.686-.6779364 1.3941227-1.4559725 2.7373043-2.328 4.019-1.3765194-.5145352-2.8929327-.5124034-4.268.006-.7883078.2920824-1.5128763.7334784-2.134 1.3-3.628-1.795-5.506-3.087-6.08-5.141zm-3.874 12.089c.40218987-1.1751404 1.31411727-2.105446 2.481-2.531.52157232-.1971864 1.07439911-.298809 1.632-.3 1.38532198.052537 2.70721306.5942608 3.731 1.529.2774091.270604.6861899.3565652 1.049093.2206104.362903-.1359548.6145818-.4693449.645907-.8556104.2070998-1.9555207 1.446835-3.6498509 3.248-4.439 1.1606316-.4415241 2.4585794-.3353217 3.532.289 1.177336.6930639 2.0711758 1.780693 2.523 3.07 1.231 3.3-.613 6.767-3.669 12.508-.438.822-.8953333 1.6866667-1.372 2.594-.954-.376-1.866-.728-2.735-1.063-6.066-2.336-9.73-3.748-10.966-7.05-.50113649-1.2706896-.53655978-2.6777027-.1-3.972z" fill="#000" style="fill: rgb(138, 102, 102);"></path><path id="Shape" d="m30.989 37.375c-1.164357-1.2927261-3.0250256-1.6958637-4.6200222-1.0009868s-2.5667997 2.3320105-2.4129778 4.0649868c-.033 2.638 1.945 4.456 4.683 6.971.48.442.991.911 1.528 1.418.3782573.356865.9669021.3642557 1.354.017.549-.492 1.071-.949 1.562-1.378 2.8-2.446 4.825-4.213 4.858-6.85.0831024-1.1217405-.2872152-2.2299395-1.0280039-3.0763672s-1.7901366-1.3603433-2.9129961-1.4266328c-1.1365051-.0226721-2.2298291.4352096-3.011 1.261zm4.952 3.216c-.022 1.744-1.584 3.109-4.173 5.37-.2893333.252-.5893333.5143333-.9.787-.3026667-.2813333-.5953333-.5513333-.878-.81-2.531-2.326-4.058-3.729-4.036-5.473-.1126785-1.220877.7800938-2.3042562 2-2.427h.026c.898626.0742833 1.6892986.6224931 2.074 1.438.1606216.351803.5096975.5794523.8963993.5845855.3867018.0051333.7416974-.21317.9116007-.5605855.3871931-.8216277 1.2021742-1.3569661 2.11-1.386.5909662.0641628 1.1316857.3621319 1.5015838.8274633s.5382144 1.0593287.4674162 1.6495367z" fill="#000" style="fill: rgb(138, 102, 102);"></path><path id="Shape" d="m6 6c1.65685425 0 3 1.34314575 3 3 0 .55228475.44771525 1 1 1 .5522847 0 1-.44771525 1-1 0-1.65685425 1.3431458-3 3-3 .5522847 0 1-.44771525 1-1s-.4477153-1-1-1c-1.6568542 0-3-1.34314575-3-3 0-.55228473-.4477153-.99999996-1-.99999996-.55228473 0-.99999998.44771523-1 .99999996 0 1.65685425-1.34314575 3-3 3-.55228475 0-1 .44771525-1 1s.44771525 1 1 1zm4-2c.2849785.37841431.6215857.71502149 1 1-.3784143.28497851-.7150215.62158569-1 1-.28497851-.37841431-.62158569-.71502149-1-1 .37841431-.28497851.71502149-.62158569 1-1z" fill="#000" style="fill: rgb(138, 102, 102);"></path><path id="Shape" d="m46 9c1.6568542 0 3 1.3431458 3 3 0 .5522847.4477153 1 1 1s1-.4477153 1-1c0-1.6568542 1.3431458-3 3-3 .5522847 0 1-.44771525 1-1s-.4477153-1-1-1c-1.6568542 0-3-1.34314575-3-3 0-.55228475-.4477153-1-1-1s-1 .44771525-1 1c0 1.65685425-1.3431458 3-3 3-.5522847 0-1 .44771525-1 1s.4477153 1 1 1zm4-2c.2849785.37841431.6215857.71502149 1 1-.3784143.28497851-.7150215.62158569-1 1-.2849785-.37841431-.6215857-.71502149-1-1 .3784143-.28497851.7150215-.62158569 1-1z" fill="#000" style="fill: rgb(138, 102, 102);"></path><path id="Shape" d="m2.293 11.707c.39049985.3903819 1.02350015.3903819 1.414 0l.293-.293.293.293c.25107447.2599566.62287789.3642126.97250732.2726972.34962944-.0915155.6226744-.3645604.71418984-.7141899.09151544-.3496294-.01274058-.7214328-.27269716-.9725073l-.293-.293.293-.293c.37897221-.39237889.37355237-1.01608478-.01218142-1.40181858-.3857338-.38573379-1.00943969-.39115363-1.40181858-.01218142l-.293.293-.293-.293c-.39237889-.37897221-1.01608478-.37355237-1.40181858.01218142-.38573379.3857338-.39115363 1.00943969-.01218142 1.40181858l.293.293-.293.293c-.39038194.3904999-.39038194 1.0235001 0 1.414z" fill="#000" style="fill: rgb(138, 102, 102);"></path><path id="Shape" d="m55.293 11.707.293.293-.293.293c-.2599566.2510745-.3642126.6228779-.2726972.9725073.0915155.3496295.3645604.6226744.7141899.7141899.3496294.0915154.7214328-.0127406.9725073-.2726972l.293-.293.293.293c.3923789.3789722 1.0160848.3735524 1.4018186-.0121814s.3911536-1.0094397.0121814-1.4018186l-.293-.293.293-.293c.3789722-.3923789.3735524-1.0160848-.0121814-1.4018186-.3857338-.38573377-1.0094397-.39115361-1.4018186-.0121814l-.293.293-.293-.293c-.3923789-.37897221-1.0160848-.37355237-1.4018186.0121814-.3857338.3857338-.3911536 1.0094397-.0121814 1.4018186z" fill="#000" style="fill: rgb(138, 102, 102);"></path></g></g></g></svg>