<!-- icon666.com - MILLIONS vector ICONS FREE --><svg xmlns="http://www.w3.org/2000/svg" id="Layer_1" data-name="Layer 1" viewBox="0 0 512 512"><path d="M256,32.94C134.39,32.94,35.44,133,35.44,256S134.39,479.06,256,479.06,476.56,379,476.56,256,377.61,32.94,256,32.94Zm0,434C141.08,466.9,47.59,372.29,47.59,256S141.08,45.1,256,45.1,464.41,139.71,464.41,256,370.92,466.9,256,466.9Z"></path><path d="M194.23,113.41a12.25,12.25,0,0,1,10-7.77,13.34,13.34,0,0,1,12.63,5.06l40.22,52a35.77,35.77,0,0,0,12.45,10.1c13.12,6.4,56.75,29.11,67.32,52.71a6.07,6.07,0,0,0,5.54,3.59h39.27a6.08,6.08,0,1,0,0-12.15H346.09c-14-25.08-54.09-46.69-71.28-55.07a23.33,23.33,0,0,1-8.17-6.63l-40.22-52a25.77,25.77,0,0,0-24-9.64A24.41,24.41,0,0,0,182.91,109a58.35,58.35,0,0,0-3.59,16.37,75.58,75.58,0,0,0,8.25,40.27L206,202H161.2a29.71,29.71,0,0,0-20.53,50.87,31.27,31.27,0,0,0-16.36,27.47v.51A31.24,31.24,0,0,0,140.11,308a28.31,28.31,0,0,0-8.3,20.17A27.83,27.83,0,0,0,149,353.8a25.76,25.76,0,0,0-5.17,15.58A25.27,25.27,0,0,0,169,394.61h66.68a25.33,25.33,0,0,0,4-.32h59.34a50.54,50.54,0,0,0,28.68-8.88L353,368.12h28.58a6.08,6.08,0,0,0,0-12.16H351.15a6.06,6.06,0,0,0-3.44,1.07l-26.82,18.36a38.55,38.55,0,0,1-21.82,6.75H257.41A25.85,25.85,0,0,0,261,369a25.16,25.16,0,0,0-7.56-18,28.21,28.21,0,0,0,12.06-23.31,27.67,27.67,0,0,0-8.55-20,31.25,31.25,0,0,0,15.3-26.85v-.51a31.3,31.3,0,0,0-19-28.73A30,30,0,0,0,261,231.36,29.42,29.42,0,0,0,231.56,202H219.61l-21.19-41.83a63.3,63.3,0,0,1-7-33.78A45.92,45.92,0,0,1,194.23,113.41ZM156,369A13.1,13.1,0,0,1,169,355.91h66.68a13.28,13.28,0,0,1,0,26.55H169A13.18,13.18,0,0,1,156,369ZM169,343.76h-9.45a15.85,15.85,0,0,1,0-31.7h78.08a15.85,15.85,0,0,1,0,31.7H169Zm91-63.45v.51A19.1,19.1,0,0,1,241,299.91H155.55a19.11,19.11,0,0,1-19.09-19.09v-.51a19.11,19.11,0,0,1,19.09-19.09H241A19.1,19.1,0,0,1,260,280.31ZM248.8,231.83a17.25,17.25,0,0,1-17.24,17.24H161.2a17.47,17.47,0,0,1,0-34.94h70.36A17.36,17.36,0,0,1,248.8,231.83Z"></path></svg>