<!-- icon666.com - MILLIONS vector ICONS FREE --><svg fill="none" viewBox="0 0 24 24" xmlns="http://www.w3.org/2000/svg"><g clip-rule="evenodd" fill="rgb(0,0,0)" fill-rule="evenodd"><path d="m3 6c0-.55228.44772-1 1-1h16c.5523 0 1 .44772 1 1s-.4477 1-1 1h-16c-.55228 0-1-.44772-1-1z" fill="rgb(0,0,0)" style="fill: rgb(100, 98, 98);"></path><path d="m3 12c0-.5523.44772-1 1-1h16c.5523 0 1 .4477 1 1s-.4477 1-1 1h-16c-.55228 0-1-.4477-1-1z" fill="rgb(0,0,0)" style="fill: rgb(100, 98, 98);"></path><path d="m3 18c0-.5523.44772-1 1-1h16c.5523 0 1 .4477 1 1s-.4477 1-1 1h-16c-.55228 0-1-.4477-1-1z" fill="rgb(0,0,0)" style="fill: rgb(100, 98, 98);"></path></g></svg>